<?xml version="1.0" standalone="no"?>
<!DOCTYPE svg PUBLIC "-//W3C//DTD SVG 20010904//EN"
 "http://www.w3.org/TR/2001/REC-SVG-20010904/DTD/svg10.dtd">
<svg version="1.0" xmlns="http://www.w3.org/2000/svg"
 width="300.000000pt" height="205.000000pt" viewBox="0 0 300.000000 205.000000"
 preserveAspectRatio="xMidYMid meet">
<metadata>
Created by potrace 1.10, written by Peter Selinger 2001-2011
</metadata>
<g transform="translate(0.000000,205.000000) scale(0.050000,-0.050000)"
fill="#000000" stroke="none">
<path d="M2171 3652 c-192 -203 -663 -1343 -622 -1505 12 -49 27 -21 114 214
218 586 492 1150 567 1165 117 24 41 -961 -123 -1604 -139 -541 -107 -492
-331 -521 -666 -86 -1128 -36 -1217 132 -174 325 457 1887 762 1887 91 0 89
-260 -4 -419 -26 -44 -155 -430 -147 -438 35 -35 190 214 268 430 126 351 84
553 -114 551 -286 -4 -595 -513 -847 -1394 -138 -480 -112 -684 101 -819 275
-174 1511 -70 2247 189 265 93 265 93 272 -21 7 -118 129 -367 209 -426 238
-177 649 -130 1289 146 198 85 884 341 915 341 50 0 310 144 310 171 0 57 -85
30 -970 -300 -1020 -381 -1206 -419 -1412 -282 -233 154 -262 865 -66 1621 85
329 42 582 -92 540 -47 -15 -189 -195 -279 -355 -83 -147 -84 -147 -77 57 7
194 -29 262 -93 178 -61 -81 -348 -543 -394 -634 -65 -130 -81 -120 -63 39 35
299 20 948 -24 1035 -52 105 -96 110 -179 22z m1038 -913 c-76 -391 -108 -605
-122 -812 l-13 -184 -132 -60 c-229 -103 -742 -250 -771 -220 -31 30 217 678
390 1024 117 232 196 363 211 348 16 -16 -55 -392 -96 -511 l-44 -125 40 -40
c58 -58 101 -32 140 88 49 149 234 513 382 750 62 98 66 10 15 -258z"/>
</g>
</svg>
