<?xml version="1.0" standalone="no"?>
<!DOCTYPE svg PUBLIC "-//W3C//DTD SVG 20010904//EN"
 "http://www.w3.org/TR/2001/REC-SVG-20010904/DTD/svg10.dtd">
<svg version="1.0" xmlns="http://www.w3.org/2000/svg"
 width="900.000000pt" height="615.000000pt" viewBox="0 0 900.000000 615.000000"
 preserveAspectRatio="xMidYMid meet">
<metadata>
Created by potrace 1.10, written by Peter Selinger 2001-2011
</metadata>
<g transform="translate(0.000000,615.000000) scale(0.100000,-0.100000)"
fill="#000000" stroke="none">
<path d="M3325 5536 c-27 -13 -60 -34 -71 -47 -41 -46 -132 -187 -185 -285
-29 -54 -63 -117 -76 -139 -12 -22 -26 -47 -29 -55 -4 -8 -26 -57 -50 -107
-64 -136 -133 -283 -150 -320 -51 -117 -67 -154 -104 -248 -17 -44 -38 -93
-46 -108 -8 -16 -14 -33 -14 -39 0 -5 -6 -24 -14 -41 -25 -60 -98 -252 -125
-332 -11 -33 -30 -85 -42 -115 -11 -30 -25 -71 -29 -90 -4 -19 -13 -48 -18
-65 -29 -87 -42 -135 -42 -154 0 -11 -5 -40 -11 -63 -9 -36 -8 -50 6 -83 l18
-40 23 50 c13 28 24 55 24 62 0 6 13 40 28 75 16 35 37 86 47 113 9 28 28 73
41 101 26 57 41 97 90 239 38 110 56 154 167 420 41 99 85 205 97 235 19 48
64 137 164 325 15 28 47 82 72 120 25 39 73 113 107 165 79 121 116 170 131
170 32 -1 41 -21 47 -107 4 -48 12 -135 19 -192 11 -95 8 -411 -5 -576 -2 -27
-8 -153 -14 -280 -11 -260 -14 -296 -36 -415 -9 -47 -20 -110 -26 -140 -5 -30
-16 -89 -23 -130 -16 -89 -88 -368 -109 -425 -8 -22 -22 -76 -32 -120 -10 -44
-23 -98 -30 -120 -7 -22 -21 -74 -30 -115 -29 -134 -74 -303 -107 -403 -26
-78 -38 -102 -58 -111 -63 -32 -440 -86 -603 -86 -34 0 -102 -7 -152 -15 -264
-45 -861 -21 -1070 43 -162 50 -297 174 -315 289 -22 142 -9 314 41 523 28
118 35 146 73 281 9 31 16 68 16 82 0 15 13 68 29 119 16 51 43 140 61 198 38
126 148 423 185 500 14 30 32 69 40 85 57 127 156 321 191 375 23 36 74 119
114 184 129 215 252 346 362 384 101 36 134 28 168 -38 24 -47 25 -70 4 -208
-18 -120 -64 -287 -96 -346 -24 -47 -87 -217 -97 -266 -4 -19 -13 -45 -19 -57
-7 -12 -12 -31 -12 -42 0 -10 -7 -32 -15 -48 -46 -88 -81 -223 -59 -223 26 0
105 90 187 212 79 119 102 161 131 248 19 58 47 137 62 175 85 222 119 465 84
594 -15 57 -64 122 -119 160 -49 33 -53 33 -148 33 -68 -1 -108 -6 -128 -16
-17 -9 -36 -16 -44 -16 -27 0 -116 -64 -181 -129 -100 -101 -163 -189 -303
-426 -7 -11 -31 -50 -54 -88 -24 -37 -43 -70 -43 -72 0 -2 -13 -24 -30 -48
-16 -25 -30 -48 -30 -52 0 -3 -15 -26 -33 -49 -18 -24 -45 -75 -61 -112 -15
-38 -34 -84 -42 -102 -8 -18 -14 -45 -14 -60 0 -16 -5 -33 -11 -39 -6 -6 -14
-26 -19 -44 -10 -38 -63 -190 -78 -223 -5 -11 -17 -48 -27 -81 -10 -33 -23
-69 -30 -80 -42 -75 -105 -270 -105 -328 0 -11 -13 -58 -29 -105 -39 -121 -57
-185 -76 -272 -9 -41 -22 -95 -30 -120 -15 -51 -26 -128 -30 -222 -2 -34 -6
-92 -10 -128 -7 -57 -4 -75 19 -140 53 -146 126 -250 236 -334 105 -80 245
-136 339 -136 22 0 73 -7 113 -16 105 -23 663 -23 792 0 49 9 126 16 171 16
46 0 119 7 162 15 43 8 96 15 118 15 22 0 57 5 78 11 21 6 69 14 105 19 204
26 243 32 307 42 39 6 93 14 120 18 107 15 352 61 383 71 18 6 56 14 85 19 47
7 92 17 222 51 76 20 150 41 170 50 49 21 174 61 245 79 45 11 114 36 166 60
63 29 160 60 188 60 28 0 26 7 51 -167 14 -96 31 -147 96 -291 16 -34 29 -65
29 -70 1 -47 139 -232 206 -275 22 -15 49 -36 59 -47 10 -11 31 -20 48 -20 16
0 43 -6 60 -13 75 -32 106 -40 177 -47 41 -4 100 -12 131 -20 44 -10 76 -10
160 0 57 6 136 15 174 19 77 8 152 26 203 47 18 8 42 14 54 14 30 0 235 58
254 72 13 9 167 66 209 77 67 18 249 90 390 155 28 13 70 31 95 41 25 9 57 23
72 31 14 8 33 14 41 14 9 0 28 7 44 15 15 8 66 29 113 46 47 17 103 40 125 49
22 10 60 25 85 33 25 9 61 23 80 33 30 16 97 37 195 63 17 4 55 19 85 33 103
47 338 134 435 162 72 21 165 56 184 70 16 13 48 31 81 48 14 7 29 18 33 25 5
8 34 27 65 43 73 38 96 56 87 70 -15 25 -150 -9 -475 -120 -129 -45 -246 -85
-260 -89 -25 -8 -237 -87 -435 -161 -55 -21 -118 -43 -140 -50 -22 -7 -44 -16
-50 -20 -5 -3 -32 -15 -60 -25 -27 -10 -55 -21 -61 -26 -5 -4 -55 -24 -110
-43 -54 -19 -148 -53 -209 -76 -244 -93 -774 -273 -855 -290 -19 -4 -71 -17
-115 -30 -297 -83 -458 -90 -648 -29 -91 30 -221 121 -274 193 -24 32 -43 64
-43 71 0 7 -7 26 -15 41 -8 16 -15 37 -15 46 0 10 -6 32 -14 50 -23 56 -34
100 -41 163 -3 33 -13 107 -22 164 -12 83 -14 167 -10 415 2 171 10 347 16
391 7 44 19 127 27 185 9 58 20 130 26 160 6 30 14 82 18 115 8 73 28 178 42
223 5 19 14 57 19 85 25 153 44 231 75 320 8 20 14 55 14 76 0 21 9 82 21 137
32 149 16 273 -52 405 -20 41 -60 74 -102 84 -48 13 -164 -89 -265 -233 -75
-106 -90 -129 -124 -180 -21 -32 -41 -63 -44 -70 -4 -7 -26 -43 -50 -79 -24
-37 -44 -72 -44 -78 0 -19 -38 -48 -51 -40 -8 5 -9 25 -4 64 16 137 20 203 15
298 -5 102 -5 103 -41 139 -28 27 -42 35 -57 29 -29 -9 -179 -211 -239 -322
-13 -24 -54 -89 -92 -145 -72 -110 -119 -182 -136 -210 -5 -10 -39 -63 -74
-119 -35 -56 -79 -131 -98 -168 -19 -36 -41 -73 -49 -82 -8 -8 -14 -21 -14
-27 0 -10 -30 -32 -45 -32 -4 0 -4 28 -1 63 4 34 10 141 15 237 4 96 14 256
21 355 14 199 9 584 -10 755 -26 244 -60 363 -116 415 -33 31 -64 31 -129 1z
m1527 -1121 c-2 -55 -7 -116 -13 -135 -6 -19 -14 -64 -19 -100 -5 -36 -15 -99
-23 -140 -8 -41 -20 -102 -26 -135 -14 -75 -39 -191 -57 -271 -8 -33 -14 -76
-14 -95 -1 -19 -7 -61 -15 -94 -8 -33 -15 -80 -15 -104 0 -24 -6 -78 -14 -120
-22 -116 -38 -281 -45 -442 -5 -121 -9 -150 -24 -166 -9 -11 -81 -52 -160 -91
-181 -91 -648 -249 -882 -298 -44 -9 -105 -22 -135 -29 -163 -39 -193 -30
-166 50 9 25 16 53 16 62 0 23 33 124 88 268 81 214 98 258 139 365 82 211
148 368 226 540 100 219 124 269 149 311 15 25 28 49 28 52 0 3 27 51 60 107
33 56 60 103 60 105 0 7 63 100 83 123 11 12 24 22 29 22 11 0 10 -132 -2
-183 -5 -23 -14 -85 -19 -137 -12 -116 -24 -176 -63 -305 -43 -140 -69 -215
-79 -221 -15 -9 -10 -41 12 -84 38 -72 91 -97 148 -67 22 11 40 45 88 172 9
22 21 54 29 70 7 17 29 71 49 120 61 148 190 404 249 495 21 31 87 148 109
190 4 8 15 27 25 42 9 14 30 48 46 75 84 137 97 154 119 151 21 -3 22 -7 19
-103z"/>
</g>
</svg>
