<?xml version="1.0" standalone="no"?>
<!DOCTYPE svg PUBLIC "-//W3C//DTD SVG 20010904//EN"
 "http://www.w3.org/TR/2001/REC-SVG-20010904/DTD/svg10.dtd">
<svg version="1.0" xmlns="http://www.w3.org/2000/svg"
 width="300.000000pt" height="300.000000pt" viewBox="0 0 300.000000 300.000000"
 preserveAspectRatio="xMidYMid meet">
<metadata>
Created by potrace 1.10, written by Peter Selinger 2001-2011
</metadata>
<g transform="translate(0.000000,300.000000) scale(0.050000,-0.050000)"
fill="#000000" stroke="none">
<path d="M1750 4286 c-116 -152 -290 -552 -290 -665 0 -66 56 -47 71 24 17 77
140 381 184 454 79 129 116 181 130 181 56 0 -3 -660 -89 -995 l-65 -250 -250
-124 c-737 -363 -1122 -429 -1183 -203 -102 377 397 1220 848 1433 254 121
319 50 184 -200 -107 -198 -69 -269 46 -86 150 239 126 389 -64 401 -437 28
-1182 -969 -1105 -1477 65 -424 450 -393 1483 120 286 142 567 277 625 299 58
23 151 60 207 83 126 50 112 71 121 -196 l7 -225 -440 -197 c-574 -256 -1888
-912 -1958 -976 -74 -69 -52 -81 55 -30 49 22 114 47 146 55 31 7 337 152 679
320 342 169 830 396 1085 505 l462 199 47 -103 c157 -342 508 -482 1014 -405
216 33 671 167 810 239 81 42 184 85 343 145 168 63 567 273 687 361 49 36
137 95 194 131 58 36 105 77 105 91 1 34 -9 32 -96 -23 -218 -138 -1212 -576
-1618 -713 -745 -252 -1211 -188 -1355 187 -51 134 -49 136 373 274 213 69
401 130 417 136 133 45 728 159 990 190 179 21 200 28 200 64 0 140 -1103 -64
-1840 -341 -232 -87 -222 -106 -192 366 60 920 57 967 -52 994 -87 22 -185
-106 -365 -474 -180 -370 -191 -374 -125 -55 55 270 49 340 -26 340 -42 0 -62
-25 -130 -160 -103 -206 -105 -204 -89 76 20 343 -38 417 -181 230z m908 -221
c-1 -85 -12 -276 -25 -425 l-23 -269 -105 -16 c-58 -8 -161 -37 -228 -65 -142
-57 -137 -56 -137 -30 0 77 464 960 505 960 8 0 14 -70 13 -155z m-606 -429
c-57 -317 -66 -397 -47 -428 14 -22 -162 -118 -181 -99 -35 35 106 528 210
738 72 144 75 106 18 -211z"/>
</g>
</svg>
