 <svg  version="1.0" xmlns="http://www.w3.org/2000/svg"  width="300.000000pt" height="146.000000pt" viewBox="0 0 300.000000 146.000000"  preserveAspectRatio="xMidYMid meet">  <g transform="translate(0.000000,146.000000) scale(0.100000,-0.100000)" fill="#DCD7C9" stroke="none"> <path d="M857 1410 c-46 -54 -86 -132 -132 -254 -34 -93 -39 -132 -14 -124 6 2 23 40 38 83 45 133 138 302 156 283 4 -4 2 -84 -4 -180 -11 -162 -21 -227 -67 -403 l-18 -70 -172 -83 c-229 -109 -358 -152 -457 -152 -110 0 -122 12 -122 127 1 187 111 403 297 579 96 90 179 137 235 132 61 -5 63 -25 15 -120 -42 -84 -50 -108 -33 -108 25 0 101 132 101 175 0 46 -27 83 -64 91 -141 26 -390 -197 -528 -471 -45 -90 -68 -178 -68 -266 0 -189 127 -235 399 -144 63 21 223 93 365 163 229 113 474 222 500 222 7 0 11 -42 11 -120 l0 -119 -45 -17 c-164 -62 -1085 -511 -1182 -577 -62 -42 -62 -61 0 -31 26 13 63 26 82 30 19 3 123 50 230 104 224 112 622 300 636 300 11 0 269 112 278 121 16 15 23 10 30 -17 19 -73 113 -174 202 -216 86 -40 225 -49 370 -23 98 17 341 91 392 120 15 8 73 32 130 54 124 50 294 135 383 193 113 73 189 128 189 137 0 4 -66 -25 -147 -65 -423 -208 -759 -337 -993 -384 -61 -12 -232 -15 -276 -4 -79 19 -148 77 -183 154 -37 82 -42 77 149 143 135 46 252 80 365 106 50 12 106 25 125 30 61 16 219 42 288 47 94 7 112 12 112 29 0 31 -43 39 -152 26 -227 -25 -511 -91 -747 -172 -80 -27 -154 -52 -163 -56 -16 -5 -18 4 -18 108 0 63 5 157 10 209 17 179 23 354 11 383 -12 30 -54 52 -77 39 -32 -18 -100 -124 -161 -252 -35 -74 -70 -147 -78 -162 -8 -15 -10 -30 -5 -33 12 -7 0 -47 -14 -42 -13 5 -15 49 -2 59 5 3 10 15 11 25 1 10 12 62 24 115 28 129 28 174 -1 189 -19 10 -25 8 -45 -17 -13 -16 -35 -57 -50 -91 -15 -35 -31 -63 -36 -63 -5 0 -6 9 -2 19 3 11 7 74 7 141 2 96 -1 123 -13 131 -24 15 -36 10 -72 -31z m469 -127 c-3 -49 -11 -150 -18 -225 l-11 -137 -51 -6 c-56 -8 -152 -39 -173 -56 -28 -24 -22 1 31 117 102 228 194 394 219 394 6 0 7 -33 3 -87z m-316 -193 c-39 -198 -45 -246 -30 -255 7 -4 -9 -16 -41 -31 -28 -14 -54 -23 -56 -20 -7 6 44 218 65 271 35 88 82 188 87 184 2 -3 -9 -70 -25 -149z"/> </g> </svg> 